<svg width="50" height="51" viewBox="0 0 50 51" fill="none" xmlns="http://www.w3.org/2000/svg">
<rect width="50" height="51" fill="#DFE3FF"/>
<path d="M37.2079 32.6527C37.2079 33.7529 36.3079 34.6531 35.2078 34.6531H15.2041C14.104 34.6531 13.204 33.7531 13.204 32.6527V17.4497C13.204 16.3496 14.104 15.4496 15.2041 15.4496H35.2078C36.3079 15.4496 37.2079 16.3496 37.2079 17.4497V32.6527ZM15.2041 17.0498C14.9917 17.0498 14.8044 17.2378 14.8044 17.4495V32.6526C14.8044 32.865 14.9918 33.0523 15.2041 33.0523H35.2078C35.4195 33.0523 35.6081 32.865 35.6081 32.6526V17.4495C35.6081 17.2378 35.4195 17.0498 35.2078 17.0498H15.2041V17.0498ZM18.8052 23.4508C17.4799 23.4508 16.4041 22.3757 16.4041 21.0508C16.4041 19.7259 17.4799 18.6502 18.8052 18.6502C20.1299 18.6502 21.2047 19.7259 21.2047 21.0508C21.2047 22.3757 20.1301 23.4508 18.8052 23.4508ZM34.0071 31.4526H16.4041V29.0517L20.405 25.0518L22.4052 27.0514L28.8062 20.651L34.0071 25.852V31.4526Z" fill="#551CFF"/>
</svg>
