<svg width="590" height="472" viewBox="0 0 590 472" fill="none" xmlns="http://www.w3.org/2000/svg">
<g filter="url(#filter0_b_544_1051)">
<circle cx="294.5" cy="224.5" r="224.5" fill="white" fill-opacity="0.8"/>
</g>
<g filter="url(#filter1_d_544_1051)">
<path fill-rule="evenodd" clip-rule="evenodd" d="M40.1622 242.658L40.1255 223.498C40.1255 223.498 294.66 96.532 296.561 97.6184L549.841 225.966V243.245C549.841 243.245 549.841 245.713 547.373 246.947L298.598 390.413C296.697 391.5 293.709 391.5 291.808 390.413L41.656 246.325C39.7547 245.238 40.1622 242.658 40.1622 242.658Z" fill="#DBDDDE"/>
</g>
<path fill-rule="evenodd" clip-rule="evenodd" d="M41.3598 221.029L292.069 78.6793C293.97 77.5928 296.958 77.5928 298.859 78.6793L548.574 223.497C550.475 224.584 550.475 226.349 548.574 227.436L301.032 369.709C299.131 370.795 296.143 370.795 294.242 369.709L41.4956 224.967C39.5944 223.881 39.4586 222.116 41.3598 221.029Z" fill="#F3F3F3"/>
<path d="M201.205 260.177L237.219 239.07L273.233 259.121L237.219 280.229L201.205 260.177Z" fill="#282828" fill-opacity="0.08"/>
<path d="M208.065 182.476L237.219 165.327L266.373 181.619L237.219 198.768L208.065 182.476Z" fill="#551CFF"/>
<path d="M208.065 182.477V216.776L237.219 233.925V198.769L208.065 182.477Z" fill="#3411C0"/>
<path d="M237.219 198.768L266.373 181.619V216.089L237.219 233.925V198.768Z" fill="#4518F9"/>
<ellipse cx="330.684" cy="77.8645" rx="19.7219" ry="18.8645" fill="url(#paint0_radial_544_1051)"/>
<path fill-rule="evenodd" clip-rule="evenodd" d="M349.931 209.196C348.13 216.703 338.437 221.79 327.85 220.379C317.264 218.968 310.51 211.65 311.994 203.96C313.795 196.453 323.488 191.366 334.074 192.777C344.661 194.188 351.415 201.506 349.931 209.196Z" fill="#282828" fill-opacity="0.04"/>
<path fill-rule="evenodd" clip-rule="evenodd" d="M260.371 335.107L437.868 235.64L447.301 237.355L269.803 340.252L260.371 335.107Z" fill="url(#paint1_linear_544_1051)"/>
<path fill-rule="evenodd" clip-rule="evenodd" d="M448.158 83.0093V235.885H437.868V83.0093H448.158Z" fill="#FFD215"/>
<path fill-rule="evenodd" clip-rule="evenodd" d="M443.013 232.7C445.928 232.7 448.158 234.186 448.158 235.885C448.158 237.583 445.928 239.07 443.013 239.07C440.098 239.07 437.868 237.583 437.868 235.885C437.868 234.186 440.098 232.7 443.013 232.7Z" fill="#FFD215"/>
<path fill-rule="evenodd" clip-rule="evenodd" d="M443.013 81.2944C445.928 81.2944 448.158 82.0947 448.158 83.0093C448.158 83.924 445.928 84.7243 443.013 84.7243C440.098 84.7243 437.868 83.924 437.868 83.0093C437.868 82.0947 440.098 81.2944 443.013 81.2944Z" fill="#FFEE50"/>
<defs>
<filter id="filter0_b_544_1051" x="26" y="-44" width="537" height="537" filterUnits="userSpaceOnUse" color-interpolation-filters="sRGB">
<feFlood flood-opacity="0" result="BackgroundImageFix"/>
<feGaussianBlur in="BackgroundImage" stdDeviation="22"/>
<feComposite in2="SourceAlpha" operator="in" result="effect1_backgroundBlur_544_1051"/>
<feBlend mode="normal" in="SourceGraphic" in2="effect1_backgroundBlur_544_1051" result="shape"/>
</filter>
<filter id="filter1_d_544_1051" x="0.125488" y="97.6115" width="589.715" height="373.617" filterUnits="userSpaceOnUse" color-interpolation-filters="sRGB">
<feFlood flood-opacity="0" result="BackgroundImageFix"/>
<feColorMatrix in="SourceAlpha" type="matrix" values="0 0 0 0 0 0 0 0 0 0 0 0 0 0 0 0 0 0 127 0" result="hardAlpha"/>
<feOffset dy="40"/>
<feGaussianBlur stdDeviation="20"/>
<feComposite in2="hardAlpha" operator="out"/>
<feColorMatrix type="matrix" values="0 0 0 0 0 0 0 0 0 0 0 0 0 0 0 0 0 0 0.1 0"/>
<feBlend mode="normal" in2="BackgroundImageFix" result="effect1_dropShadow_544_1051"/>
<feBlend mode="normal" in="SourceGraphic" in2="effect1_dropShadow_544_1051" result="shape"/>
</filter>
<radialGradient id="paint0_radial_544_1051" cx="0" cy="0" r="1" gradientUnits="userSpaceOnUse" gradientTransform="translate(331.541 96.7289) rotate(-90) scale(37.7289 37.2795)">
<stop stop-color="#15955E"/>
<stop offset="1" stop-color="#42E7AA"/>
</radialGradient>
<linearGradient id="paint1_linear_544_1051" x1="188.343" y1="304.238" x2="306.675" y2="99.3014" gradientUnits="userSpaceOnUse">
<stop stop-color="white" stop-opacity="0"/>
<stop offset="0.64517" stop-color="#C4C4C4" stop-opacity="0.43"/>
<stop offset="1" stop-color="#C4C4C4" stop-opacity="0"/>
</linearGradient>
</defs>
</svg>
