<svg width="121" height="25" viewBox="0 0 121 25" fill="none" xmlns="http://www.w3.org/2000/svg">
<path d="M13 2.11725L3 14.1172H12L11 22.1172L21 10.1172H12L13 2.11725Z" stroke="white" stroke-width="2" stroke-linecap="round" stroke-linejoin="round"/>
<path d="M50.426 5.48125V18.1172H47.348V10.5392L44.522 18.1172H42.038L39.194 10.5212V18.1172H36.116V5.48125H39.752L43.298 14.2292L46.808 5.48125H50.426ZM53.1874 7.02925C52.6474 7.02925 52.2034 6.87325 51.8554 6.56125C51.5194 6.23725 51.3514 5.84125 51.3514 5.37325C51.3514 4.89325 51.5194 4.49725 51.8554 4.18525C52.2034 3.86125 52.6474 3.69925 53.1874 3.69925C53.7154 3.69925 54.1474 3.86125 54.4834 4.18525C54.8314 4.49725 55.0054 4.89325 55.0054 5.37325C55.0054 5.84125 54.8314 6.23725 54.4834 6.56125C54.1474 6.87325 53.7154 7.02925 53.1874 7.02925ZM54.7174 8.07325V18.1172H51.6394V8.07325H54.7174ZM55.336 13.0952C55.336 12.0512 55.546 11.1392 55.966 10.3592C56.398 9.57925 56.992 8.97925 57.748 8.55925C58.516 8.13925 59.392 7.92925 60.376 7.92925C61.636 7.92925 62.686 8.25925 63.526 8.91925C64.378 9.57925 64.936 10.5092 65.2 11.7092H61.924C61.648 10.9412 61.114 10.5572 60.322 10.5572C59.758 10.5572 59.308 10.7792 58.972 11.2232C58.636 11.6552 58.468 12.2792 58.468 13.0952C58.468 13.9112 58.636 14.5412 58.972 14.9852C59.308 15.4172 59.758 15.6332 60.322 15.6332C61.114 15.6332 61.648 15.2492 61.924 14.4812H65.2C64.936 15.6572 64.378 16.5812 63.526 17.2532C62.674 17.9252 61.624 18.2612 60.376 18.2612C59.392 18.2612 58.516 18.0512 57.748 17.6312C56.992 17.2112 56.398 16.6112 55.966 15.8312C55.546 15.0512 55.336 14.1392 55.336 13.0952ZM68.9245 9.74725C69.2845 9.19525 69.7345 8.76325 70.2745 8.45125C70.8145 8.12725 71.4145 7.96525 72.0745 7.96525V11.2232H71.2285C70.4605 11.2232 69.8845 11.3912 69.5005 11.7272C69.1165 12.0512 68.9245 12.6272 68.9245 13.4552V18.1172H65.8465V8.07325H68.9245V9.74725ZM77.1177 18.2612C76.1337 18.2612 75.2457 18.0512 74.4537 17.6312C73.6737 17.2112 73.0557 16.6112 72.5997 15.8312C72.1557 15.0512 71.9337 14.1392 71.9337 13.0952C71.9337 12.0632 72.1617 11.1572 72.6177 10.3772C73.0737 9.58525 73.6977 8.97925 74.4897 8.55925C75.2817 8.13925 76.1697 7.92925 77.1537 7.92925C78.1377 7.92925 79.0257 8.13925 79.8177 8.55925C80.6097 8.97925 81.2337 9.58525 81.6897 10.3772C82.1457 11.1572 82.3737 12.0632 82.3737 13.0952C82.3737 14.1272 82.1397 15.0392 81.6717 15.8312C81.2157 16.6112 80.5857 17.2112 79.7817 17.6312C78.9897 18.0512 78.1017 18.2612 77.1177 18.2612ZM77.1177 15.5972C77.7057 15.5972 78.2037 15.3812 78.6117 14.9492C79.0317 14.5172 79.2417 13.8992 79.2417 13.0952C79.2417 12.2912 79.0377 11.6732 78.6297 11.2412C78.2337 10.8092 77.7417 10.5932 77.1537 10.5932C76.5537 10.5932 76.0557 10.8092 75.6597 11.2412C75.2637 11.6612 75.0657 12.2792 75.0657 13.0952C75.0657 13.8992 75.2577 14.5172 75.6417 14.9492C76.0377 15.3812 76.5297 15.5972 77.1177 15.5972ZM86.0846 4.79725V18.1172H83.0066V4.79725H86.0846ZM88.8632 7.02925C88.3232 7.02925 87.8792 6.87325 87.5312 6.56125C87.1952 6.23725 87.0272 5.84125 87.0272 5.37325C87.0272 4.89325 87.1952 4.49725 87.5312 4.18525C87.8792 3.86125 88.3232 3.69925 88.8632 3.69925C89.3912 3.69925 89.8232 3.86125 90.1592 4.18525C90.5072 4.49725 90.6812 4.89325 90.6812 5.37325C90.6812 5.84125 90.5072 6.23725 90.1592 6.56125C89.8232 6.87325 89.3912 7.02925 88.8632 7.02925ZM90.3932 8.07325V18.1172H87.3152V8.07325H90.3932ZM95.4398 7.92925C96.1478 7.92925 96.7658 8.07325 97.2938 8.36125C97.8338 8.64925 98.2478 9.02725 98.5358 9.49525V8.07325H101.614V18.0992C101.614 19.0232 101.428 19.8572 101.056 20.6012C100.696 21.3572 100.138 21.9572 99.3818 22.4012C98.6378 22.8452 97.7078 23.0672 96.5918 23.0672C95.1038 23.0672 93.8978 22.7132 92.9738 22.0052C92.0498 21.3092 91.5218 20.3612 91.3898 19.1612H94.4318C94.5278 19.5452 94.7558 19.8452 95.1158 20.0612C95.4758 20.2892 95.9198 20.4032 96.4478 20.4032C97.0838 20.4032 97.5878 20.2172 97.9598 19.8452C98.3438 19.4852 98.5358 18.9032 98.5358 18.0992V16.6772C98.2358 17.1452 97.8218 17.5292 97.2938 17.8292C96.7658 18.1172 96.1478 18.2612 95.4398 18.2612C94.6118 18.2612 93.8618 18.0512 93.1898 17.6312C92.5178 17.1992 91.9838 16.5932 91.5878 15.8132C91.2038 15.0212 91.0118 14.1092 91.0118 13.0772C91.0118 12.0452 91.2038 11.1392 91.5878 10.3592C91.9838 9.57925 92.5178 8.97925 93.1898 8.55925C93.8618 8.13925 94.6118 7.92925 95.4398 7.92925ZM98.5358 13.0952C98.5358 12.3272 98.3198 11.7212 97.8878 11.2772C97.4678 10.8332 96.9518 10.6112 96.3398 10.6112C95.7278 10.6112 95.2058 10.8332 94.7738 11.2772C94.3538 11.7092 94.1438 12.3092 94.1438 13.0772C94.1438 13.8452 94.3538 14.4572 94.7738 14.9132C95.2058 15.3572 95.7278 15.5792 96.3398 15.5792C96.9518 15.5792 97.4678 15.3572 97.8878 14.9132C98.3198 14.4692 98.5358 13.8632 98.5358 13.0952ZM109.015 7.96525C110.167 7.96525 111.091 8.34925 111.787 9.11725C112.483 9.87325 112.831 10.9172 112.831 12.2492V18.1172H109.771V12.6632C109.771 11.9912 109.597 11.4692 109.249 11.0972C108.901 10.7252 108.433 10.5392 107.845 10.5392C107.257 10.5392 106.789 10.7252 106.441 11.0972C106.093 11.4692 105.919 11.9912 105.919 12.6632V18.1172H102.841V4.79725H105.919V9.42325C106.231 8.97925 106.657 8.62525 107.197 8.36125C107.737 8.09725 108.343 7.96525 109.015 7.96525ZM119.568 15.5072V18.1172H118.002C116.886 18.1172 116.016 17.8472 115.392 17.3072C114.768 16.7552 114.456 15.8612 114.456 14.6252V10.6292H113.232V8.07325H114.456V5.62525H117.534V8.07325H119.55V10.6292H117.534V14.6612C117.534 14.9612 117.606 15.1772 117.75 15.3092C117.894 15.4412 118.134 15.5072 118.47 15.5072H119.568Z" fill="white"/>
</svg>
