<svg width="144" height="24" viewBox="0 0 144 24" fill="none" xmlns="http://www.w3.org/2000/svg">
<path d="M13 2.44556L3 14.4456H12L11 22.4456L21 10.4456H12L13 2.44556Z" stroke="white" stroke-width="2" stroke-linecap="round" stroke-linejoin="round"/>
<path d="M50.426 5.364V18H47.348V10.422L44.522 18H42.038L39.194 10.404V18H36.116V5.364H39.752L43.298 14.112L46.808 5.364H50.426ZM53.1874 6.912C52.6474 6.912 52.2034 6.756 51.8554 6.444C51.5194 6.12 51.3514 5.724 51.3514 5.256C51.3514 4.776 51.5194 4.38 51.8554 4.068C52.2034 3.744 52.6474 3.582 53.1874 3.582C53.7154 3.582 54.1474 3.744 54.4834 4.068C54.8314 4.38 55.0054 4.776 55.0054 5.256C55.0054 5.724 54.8314 6.12 54.4834 6.444C54.1474 6.756 53.7154 6.912 53.1874 6.912ZM54.7174 7.956V18H51.6394V7.956H54.7174ZM55.336 12.978C55.336 11.934 55.546 11.022 55.966 10.242C56.398 9.462 56.992 8.862 57.748 8.442C58.516 8.022 59.392 7.812 60.376 7.812C61.636 7.812 62.686 8.142 63.526 8.802C64.378 9.462 64.936 10.392 65.2 11.592H61.924C61.648 10.824 61.114 10.44 60.322 10.44C59.758 10.44 59.308 10.662 58.972 11.106C58.636 11.538 58.468 12.162 58.468 12.978C58.468 13.794 58.636 14.424 58.972 14.868C59.308 15.3 59.758 15.516 60.322 15.516C61.114 15.516 61.648 15.132 61.924 14.364H65.2C64.936 15.54 64.378 16.464 63.526 17.136C62.674 17.808 61.624 18.144 60.376 18.144C59.392 18.144 58.516 17.934 57.748 17.514C56.992 17.094 56.398 16.494 55.966 15.714C55.546 14.934 55.336 14.022 55.336 12.978ZM68.9245 9.63C69.2845 9.078 69.7345 8.646 70.2745 8.334C70.8145 8.01 71.4145 7.848 72.0745 7.848V11.106H71.2285C70.4605 11.106 69.8845 11.274 69.5005 11.61C69.1165 11.934 68.9245 12.51 68.9245 13.338V18H65.8465V7.956H68.9245V9.63ZM77.1177 18.144C76.1337 18.144 75.2457 17.934 74.4537 17.514C73.6737 17.094 73.0557 16.494 72.5997 15.714C72.1557 14.934 71.9337 14.022 71.9337 12.978C71.9337 11.946 72.1617 11.04 72.6177 10.26C73.0737 9.468 73.6977 8.862 74.4897 8.442C75.2817 8.022 76.1697 7.812 77.1537 7.812C78.1377 7.812 79.0257 8.022 79.8177 8.442C80.6097 8.862 81.2337 9.468 81.6897 10.26C82.1457 11.04 82.3737 11.946 82.3737 12.978C82.3737 14.01 82.1397 14.922 81.6717 15.714C81.2157 16.494 80.5857 17.094 79.7817 17.514C78.9897 17.934 78.1017 18.144 77.1177 18.144ZM77.1177 15.48C77.7057 15.48 78.2037 15.264 78.6117 14.832C79.0317 14.4 79.2417 13.782 79.2417 12.978C79.2417 12.174 79.0377 11.556 78.6297 11.124C78.2337 10.692 77.7417 10.476 77.1537 10.476C76.5537 10.476 76.0557 10.692 75.6597 11.124C75.2637 11.544 75.0657 12.162 75.0657 12.978C75.0657 13.782 75.2577 14.4 75.6417 14.832C76.0377 15.264 76.5297 15.48 77.1177 15.48ZM97.4246 7.956L94.7066 18H91.3046L89.7206 11.484L88.0826 18H84.6986L81.9626 7.956H85.0406L86.4626 15.138L88.1546 7.956H91.4126L93.1226 15.102L94.5266 7.956H97.4246ZM100.676 4.68V18H97.5984V4.68H100.676ZM103.455 6.912C102.915 6.912 102.471 6.756 102.123 6.444C101.787 6.12 101.619 5.724 101.619 5.256C101.619 4.776 101.787 4.38 102.123 4.068C102.471 3.744 102.915 3.582 103.455 3.582C103.983 3.582 104.415 3.744 104.751 4.068C105.099 4.38 105.273 4.776 105.273 5.256C105.273 5.724 105.099 6.12 104.751 6.444C104.415 6.756 103.983 6.912 103.455 6.912ZM104.985 7.956V18H101.907V7.956H104.985ZM110.032 7.812C110.74 7.812 111.358 7.956 111.886 8.244C112.426 8.532 112.84 8.91 113.128 9.378V7.956H116.206V17.982C116.206 18.906 116.02 19.74 115.648 20.484C115.288 21.24 114.73 21.84 113.974 22.284C113.23 22.728 112.3 22.95 111.184 22.95C109.696 22.95 108.49 22.596 107.566 21.888C106.642 21.192 106.114 20.244 105.982 19.044H109.024C109.12 19.428 109.348 19.728 109.708 19.944C110.068 20.172 110.512 20.286 111.04 20.286C111.676 20.286 112.18 20.1 112.552 19.728C112.936 19.368 113.128 18.786 113.128 17.982V16.56C112.828 17.028 112.414 17.412 111.886 17.712C111.358 18 110.74 18.144 110.032 18.144C109.204 18.144 108.454 17.934 107.782 17.514C107.11 17.082 106.576 16.476 106.18 15.696C105.796 14.904 105.604 13.992 105.604 12.96C105.604 11.928 105.796 11.022 106.18 10.242C106.576 9.462 107.11 8.862 107.782 8.442C108.454 8.022 109.204 7.812 110.032 7.812ZM113.128 12.978C113.128 12.21 112.912 11.604 112.48 11.16C112.06 10.716 111.544 10.494 110.932 10.494C110.32 10.494 109.798 10.716 109.366 11.16C108.946 11.592 108.736 12.192 108.736 12.96C108.736 13.728 108.946 14.34 109.366 14.796C109.798 15.24 110.32 15.462 110.932 15.462C111.544 15.462 112.06 15.24 112.48 14.796C112.912 14.352 113.128 13.746 113.128 12.978ZM123.606 7.848C124.758 7.848 125.682 8.232 126.378 9C127.074 9.756 127.422 10.8 127.422 12.132V18H124.362V12.546C124.362 11.874 124.188 11.352 123.84 10.98C123.492 10.608 123.024 10.422 122.436 10.422C121.848 10.422 121.38 10.608 121.032 10.98C120.684 11.352 120.51 11.874 120.51 12.546V18H117.432V4.68H120.51V9.306C120.822 8.862 121.248 8.508 121.788 8.244C122.328 7.98 122.934 7.848 123.606 7.848ZM134.159 15.39V18H132.593C131.477 18 130.607 17.73 129.983 17.19C129.359 16.638 129.047 15.744 129.047 14.508V10.512H127.823V7.956H129.047V5.508H132.125V7.956H134.141V10.512H132.125V14.544C132.125 14.844 132.197 15.06 132.341 15.192C132.485 15.324 132.725 15.39 133.061 15.39H134.159ZM138.96 18.144C138.084 18.144 137.304 17.994 136.62 17.694C135.936 17.394 135.396 16.986 135 16.47C134.604 15.942 134.382 15.354 134.334 14.706H137.376C137.412 15.054 137.574 15.336 137.862 15.552C138.15 15.768 138.504 15.876 138.924 15.876C139.308 15.876 139.602 15.804 139.806 15.66C140.022 15.504 140.13 15.306 140.13 15.066C140.13 14.778 139.98 14.568 139.68 14.436C139.38 14.292 138.894 14.136 138.222 13.968C137.502 13.8 136.902 13.626 136.422 13.446C135.942 13.254 135.528 12.96 135.18 12.564C134.832 12.156 134.658 11.61 134.658 10.926C134.658 10.35 134.814 9.828 135.126 9.36C135.45 8.88 135.918 8.502 136.53 8.226C137.154 7.95 137.892 7.812 138.744 7.812C140.004 7.812 140.994 8.124 141.714 8.748C142.446 9.372 142.866 10.2 142.974 11.232H140.13C140.082 10.884 139.926 10.608 139.662 10.404C139.41 10.2 139.074 10.098 138.654 10.098C138.294 10.098 138.018 10.17 137.826 10.314C137.634 10.446 137.538 10.632 137.538 10.872C137.538 11.16 137.688 11.376 137.988 11.52C138.3 11.664 138.78 11.808 139.428 11.952C140.172 12.144 140.778 12.336 141.246 12.528C141.714 12.708 142.122 13.008 142.47 13.428C142.83 13.836 143.016 14.388 143.028 15.084C143.028 15.672 142.86 16.2 142.524 16.668C142.2 17.124 141.726 17.484 141.102 17.748C140.49 18.012 139.776 18.144 138.96 18.144Z" fill="white"/>
</svg>
